<?xml version="1.0" encoding="utf-8"?>
<!-- Generator: Adobe Illustrator 26.0.1, SVG Export Plug-In . SVG Version: 6.00 Build 0)  -->
<svg version="1.1" id="Layer_1" xmlns="http://www.w3.org/2000/svg" xmlns:xlink="http://www.w3.org/1999/xlink" x="0px" y="0px"
	 viewBox="0 0 483.65 297.89" style="enable-background:new 0 0 483.65 297.89;" xml:space="preserve">
<style type="text/css">
	.st0{fill:#E91B41;}
	.st1{fill:#231F20;}
	.st2{fill:#FFFFFF;}
</style>
<g>
	<g>
		<path class="st0" d="M115.92,65.94c-4.41-8.53-10.54-15.29-18.37-20.28c-7.86-5.01-16.68-7.52-26.47-7.52
			c-7.54,0-14.51,1.88-20.9,5.62c-6.4,3.73-11.51,8.82-15.35,15.24V41.22H11.21v134.76l24.85-24.85V142l-0.52-12.22
			c0.17,0.29,0.34,0.58,0.52,0.87c3.53,5.76,8.31,10.38,14.38,13.88c6.37,3.65,13.36,5.48,20.96,5.48c9.65,0,18.37-2.48,26.15-7.49
			c7.75-4.99,13.86-11.77,18.32-20.28c4.47-8.54,6.68-17.93,6.68-28.22C122.55,83.85,120.34,74.48,115.92,65.94z M93.69,111.51
			c-2.82,4.99-6.58,8.85-11.3,11.54c-4.73,2.71-9.9,4.07-15.51,4.07s-10.8-1.44-15.58-4.28c-4.75-2.82-8.53-6.76-11.33-11.8
			c-2.82-5.04-4.23-10.7-4.23-17.02c0-6,1.39-11.56,4.18-16.62c2.77-5.06,6.53-9.06,11.3-11.98c4.75-2.9,9.95-4.36,15.56-4.36
			c5.69,0,10.91,1.38,15.66,4.18c4.75,2.76,8.53,6.65,11.3,11.64c2.77,5.01,4.15,10.72,4.15,17.14
			C97.89,100.68,96.48,106.5,93.69,111.51z"/>
		<path class="st1" d="M211.83,41.24v17.87c-3.43-6.57-8.48-11.73-15.15-15.46c-6.68-3.73-14.33-5.6-22.96-5.6
			c-9.25,0-17.65,2.52-25.22,7.55c-7.57,5.04-13.53,11.83-17.87,20.39c-4.35,8.56-6.53,17.91-6.53,28.05
			c0,10.2,2.16,19.58,6.48,28.14c4.31,8.56,10.27,15.34,17.87,20.34s16.06,7.5,25.37,7.5c8.56,0,16.18-1.85,22.86-5.55
			c6.67-3.7,11.72-8.83,15.15-15.41v17.78h23.62V41.24H211.83z M206.69,110.73c-2.74,5.03-6.49,9.01-11.25,11.91
			c-4.76,2.92-9.98,4.37-15.66,4.37c-5.62,0-10.79-1.34-15.51-4.01c-4.73-2.67-8.49-6.5-11.3-11.5s-4.21-10.82-4.21-17.46
			c0-6.44,1.38-12.16,4.16-17.16c2.77-5,6.52-8.88,11.25-11.66c4.72-2.77,9.92-4.16,15.61-4.16c5.68,0,10.89,1.48,15.61,4.42
			c4.73,2.95,8.48,6.93,11.25,11.97c2.77,5.03,4.16,10.56,4.16,16.59C210.8,100.13,209.43,105.7,206.69,110.73z"/>
		<path class="st1" d="M292.54,41.24c-6.72,0-12.48,1.69-17.31,5.08c-4.83,3.39-8.51,8.07-11.05,14.02v-19.1h-23.83v105.6h24.86
			V97.73c0-7.39,1.2-13.72,3.6-19c2.39-5.27,5.75-9.28,10.06-12.02c4.32-2.74,9.32-4.11,15-4.11h9.97V41.24H292.54z"/>
		<path class="st1" d="M346.89,41.24V10.11l-24.86,0.21v30.92h-21.88V62.6h21.88v44.07c0,15.61,3.32,26.21,9.96,31.79
			c6.65,5.59,15,8.38,25.07,8.38h21.47v-20.65H362.2c-10.21,0-15.31-6.13-15.31-18.39V62.6h31.64V41.24H346.89z"/>
		<path class="st1" d="M453.94,41.34l-24.45,63.89l-2.77,10.79l-2.67-10.89l-24.86-63.89h-26.2l5.54,13.78l34.94,86.89l-1.24,3.59
			c-1.57,4.11-3.17,7.36-4.77,9.76c-1.61,2.39-3.6,4.17-5.96,5.34c-2.37,1.16-5.36,1.75-8.99,1.75h-13.98v20.54h14.19
			c8.14,0,14.84-1.04,20.08-3.13c5.24-2.09,9.91-5.86,14.02-11.3c4.11-5.44,8.25-13.44,12.43-23.99l41.19-103.23L453.94,41.34z"/>
	</g>
	<g>
		<path class="st1" d="M118.69,187.1c-0.78-2.14-1.72-4.2-2.77-6.24c-4.41-8.53-10.54-15.29-18.37-20.3c-1.57-1-3.16-1.88-4.8-2.67
			c-0.26-0.13-0.52-0.26-0.79-0.36c-3.6-1.7-7.36-2.9-11.32-3.6c-3.08-0.58-6.27-0.87-9.56-0.87c-5.4,0-10.51,0.97-15.29,2.88
			c-1.88,0.75-3.71,1.64-5.51,2.68c-6.34,3.68-11.27,8.62-14.85,14.78l0.49-10.77l-24.71,24.71v74.41h23.62v-17.78
			c3.63,6.53,8.72,11.64,15.24,15.37c6.55,3.74,13.65,5.59,21.33,5.59c9.65,0,18.37-2.51,26.15-7.49
			c7.75-5.01,13.86-11.77,18.32-20.28c1.07-2.01,1.99-4.1,2.79-6.21c0-0.03,0.03-0.03,0.03-0.05c2.58-6.82,3.86-14.12,3.86-21.95
			C122.55,201.17,121.27,193.89,118.69,187.1z M93.69,226.41c-2.82,5.01-6.58,8.84-11.3,11.56c-4.73,2.71-9.9,4.07-15.51,4.07
			s-10.8-1.44-15.58-4.28c-4.75-2.85-8.53-6.79-11.33-11.8c-2.82-5.04-4.23-10.7-4.23-17.01c0-6.03,1.39-11.57,4.18-16.63
			c2.77-5.09,6.53-9.06,11.3-11.98c3.47-2.11,7.21-3.47,11.15-4.05c1.43-0.21,2.89-0.31,4.41-0.31c1.54,0,3.05,0.1,4.51,0.31
			c3.97,0.55,7.68,1.83,11.15,3.84c4.75,2.77,8.53,6.68,11.3,11.67c2.77,5.01,4.15,10.72,4.15,17.15
			C97.89,215.6,96.48,221.42,93.69,226.41z"/>
		<path class="st1" d="M212.17,157.89v16.13c-3.42-6.55-8.49-11.72-15.17-15.45c-0.42-0.23-0.86-0.47-1.3-0.68h-42.42
			c-1.51,0.79-2.97,1.67-4.43,2.64c-7.57,5.04-13.55,11.82-17.88,20.38c-1.02,2.01-1.93,4.08-2.72,6.19
			c-2.53,6.81-3.81,14.09-3.81,21.85c0,7.8,1.26,15.16,3.79,22c0.78,2.09,1.67,4.15,2.69,6.16c4.3,8.56,10.25,15.34,17.87,20.33
			c7.6,5.01,16.06,7.49,25.37,7.49c8.56,0,16.19-1.83,22.84-5.53c6.68-3.71,11.75-8.85,15.17-15.4v17.77h23.62V157.89H212.17z
			 M207.02,225.65c-2.74,5.04-6.49,9-11.24,11.93c-4.76,2.89-9.98,4.36-15.67,4.36c-5.61,0-10.77-1.34-15.5-4.02
			c-4.72-2.67-8.51-6.5-11.3-11.49c-2.82-5.01-4.23-10.83-4.23-17.48c0-6.43,1.41-12.14,4.18-17.15c2.76-4.99,6.52-8.88,11.25-11.64
			c4.72-2.8,9.92-4.18,15.6-4.18c5.69,0,10.89,1.49,15.61,4.41c4.73,2.95,8.49,6.94,11.25,11.98c2.77,5.04,4.18,10.57,4.18,16.58
			C211.15,215.05,209.76,220.61,207.02,225.65z"/>
		<path class="st1" d="M331.78,166.32c-2.79-3.52-6.16-6.31-10.05-8.43h-42.51c-0.32,0.13-0.6,0.32-0.92,0.47
			c-6.47,3.6-11.25,8.36-14.33,14.23v-14.7h-23.62v103.88h24.85v-53.95c0-6.63,1.28-12.37,3.86-17.2
			c2.56-4.83,5.98-8.48,10.21-10.99c4.25-2.5,8.87-3.75,13.88-3.75c7.81,0,13.84,2.37,18.07,7.15c4.25,4.75,6.36,12.19,6.36,22.34
			v56.4h24.88v-56.92C342.46,188.06,338.88,175.22,331.78,166.32z"/>
		<path class="st1" d="M396.26,225.56l31.4-40.06h-30.25l-26.37,33.05v-60.66h-24.85v103.88h24.85v-11.3l7.13-8.67l27.43,47.58
			h27.93L396.26,225.56z"/>
	</g>
	<path class="st2" d="M36.06,151.13v2.46c-0.7-0.13-1.4-0.25-2.11-0.35L36.06,151.13z"/>
	<path d="M418.06,242.25c0.39-9.67,8.79-17.7,18.4-17.57c10.03,0.13,18.24,8.7,18.03,18.86c-0.2,10.08-8.98,18.47-18.86,18.04
		C425.55,261.14,417.65,252.44,418.06,242.25z"/>
</g>
</svg>
