<svg width="26" height="26" viewBox="0 0 26 26" fill="none" xmlns="http://www.w3.org/2000/svg">
<path opacity="0.4" d="M10.776 2.97913C9.03542 2.97912 7.66091 2.9791 6.56646 3.10123C5.44446 3.22643 4.5228 3.48789 3.7299 4.07563C3.18482 4.47967 2.71302 4.97983 2.33448 5.55213C1.63551 6.60887 1.4293 7.88995 1.35579 9.58302C1.32068 10.3918 2.00209 10.9349 2.67072 10.9349C3.68027 10.9349 4.5765 11.8152 4.5765 13C4.5765 14.1847 3.68027 15.065 2.67072 15.065C2.00209 15.065 1.32068 15.6081 1.35579 16.4169C1.4293 18.1099 1.63551 19.3911 2.33448 20.4478C2.71302 21.0201 3.18482 21.5203 3.7299 21.9242C4.5228 22.5121 5.44446 22.7735 6.56646 22.8987C7.6609 23.0208 9.03539 23.0208 10.776 23.0208H15.2247C16.9653 23.0208 18.3399 23.0208 19.4343 22.8987C20.5563 22.7735 21.478 22.5121 22.2709 21.9242C22.8159 21.5203 23.2878 21.0201 23.6664 20.4478C24.3653 19.391 24.5716 18.1097 24.645 16.4164C24.6456 16.4045 24.6458 16.3929 24.6458 16.3812V9.61882C24.6458 9.60708 24.6456 9.59533 24.645 9.58359C24.5716 7.89023 24.3653 6.60899 23.6664 5.55213C23.2878 4.97983 22.8159 4.47967 22.2709 4.07563C21.478 3.48789 20.5563 3.22643 19.4343 3.10123C18.3399 2.9791 16.9654 2.97912 15.2248 2.97913H10.776Z" fill="#E91B41"/>
<path d="M15.7065 8.9375C16.3662 8.9375 16.7856 9.4305 16.9973 9.85891L16.9977 9.8599L17.5288 10.9308L18.4738 11.0891C18.9485 11.1688 19.5169 11.4329 19.7116 12.0433C19.9058 12.6526 19.5967 13.1967 19.2564 13.5381L19.2553 13.5392L18.5186 14.2819L18.7283 15.1955C18.8344 15.6602 18.8672 16.398 18.2796 16.8299C17.6887 17.2643 16.9931 17.0061 16.5839 16.7623L15.707 16.2388L14.8304 16.7621C14.4188 17.0082 13.725 17.2625 13.1351 16.8284C12.5491 16.3973 12.5785 15.6622 12.6858 15.1948L12.8952 14.2819L12.1566 13.5372C11.8183 13.1962 11.5104 12.6528 11.7031 12.0448C11.8965 11.4336 12.4649 11.169 12.9404 11.089L13.8814 10.9314L14.4136 9.85839L14.4143 9.85687C14.6274 9.42944 15.0479 8.9375 15.7065 8.9375Z" fill="#E91B41"/>
<path d="M9.479 23.0207C8.88949 23.0176 8.34938 23.0098 7.854 22.9907V18.4188C7.854 17.9701 8.21778 17.6063 8.6665 17.6063C9.11523 17.6063 9.479 17.9701 9.479 18.4188V23.0207Z" fill="#E91B41"/>
<path d="M9.479 2.9834V7.58536C9.479 8.03409 9.11523 8.39786 8.6665 8.39786C8.21778 8.39786 7.854 8.03409 7.854 7.58536V3.01347C8.34938 2.99438 8.88949 2.98658 9.479 2.9834Z" fill="#E91B41"/>
</svg>
