<svg width="108" height="65" viewBox="0 0 108 65" fill="none" xmlns="http://www.w3.org/2000/svg">
<path d="M24.3645 13.053C23.3615 11.1058 21.9673 9.56272 20.1865 8.42364C18.3988 7.27999 16.3928 6.70703 14.1662 6.70703C12.4514 6.70703 10.8661 7.13618 9.41279 7.98992C7.95719 8.84138 6.79499 10.0033 5.92163 11.4688V7.41011H0.549561V38.1721L6.20138 32.4995V30.4154L6.08311 27.6259C6.12177 27.6921 6.16044 27.7583 6.20138 27.8245C7.00423 29.1393 8.09138 30.194 9.47192 30.9929C10.9207 31.8261 12.5105 32.2438 14.239 32.2438C16.4338 32.2438 18.417 31.6777 20.1865 30.5341C21.9491 29.395 23.3388 27.8473 24.3531 25.9047C25.3698 23.9553 25.8724 21.8118 25.8724 19.4629C25.8724 17.1414 25.3698 15.0024 24.3645 13.053ZM19.3086 23.4554C18.6672 24.5944 17.812 25.4756 16.7385 26.0896C15.6628 26.7082 14.4869 27.0187 13.211 27.0187C11.9351 27.0187 10.7547 26.69 9.66752 26.0417C8.58719 25.398 7.72748 24.4986 7.09065 23.3481C6.44928 22.1976 6.1286 20.9056 6.1286 19.4629C6.1286 18.0932 6.44473 16.8241 7.07928 15.669C7.70928 14.5139 8.56445 13.6009 9.64932 12.9343C10.7297 12.2723 11.9123 11.939 13.1882 11.939C14.4824 11.939 15.6696 12.254 16.7499 12.8932C17.8302 13.5232 18.69 14.4112 19.32 15.5503C19.95 16.6939 20.2638 17.9974 20.2638 19.4629C20.2638 20.9832 19.9431 22.3117 19.3086 23.4554Z" fill="#E91B41"/>
<path d="M46.1779 7.41471V11.4939C45.3978 9.99419 44.2493 8.8163 42.7322 7.96485C41.213 7.11339 39.4731 6.68652 37.5103 6.68652C35.4065 6.68652 33.496 7.26177 31.7743 8.40998C30.0526 9.56047 28.6971 11.1104 27.71 13.0644C26.7207 15.0185 26.2249 17.1528 26.2249 19.4675C26.2249 21.7959 26.7161 23.9371 27.6986 25.8911C28.6789 27.8451 30.0344 29.3928 31.7629 30.5341C33.4915 31.6755 35.4156 32.2462 37.533 32.2462C39.4799 32.2462 41.213 31.8239 42.7322 30.9792C44.2493 30.1346 45.3978 28.9636 46.1779 27.4616V31.5203H51.55V7.41471H46.1779ZM45.0089 23.2773C44.3857 24.4256 43.5328 25.3341 42.4502 25.9961C41.3676 26.6626 40.1804 26.9936 38.8886 26.9936C37.6104 26.9936 36.4345 26.6877 35.361 26.0782C34.2852 25.4688 33.4301 24.5945 32.791 23.4531C32.1519 22.3118 31.8335 20.9832 31.8335 19.4675C31.8335 17.9974 32.1473 16.6917 32.7796 15.5503C33.4096 14.409 34.2625 13.5233 35.3383 12.8887C36.4118 12.2564 37.5944 11.9391 38.8886 11.9391C40.1804 11.9391 41.3653 12.2769 42.4389 12.948C43.5146 13.6214 44.3675 14.53 44.9975 15.6804C45.6275 16.8287 45.9437 18.091 45.9437 19.4675C45.9437 20.8577 45.6321 22.1291 45.0089 23.2773Z" fill="white"/>
<path d="M64.5345 7.41504C63.0061 7.41504 61.6961 7.80082 60.5976 8.57466C59.499 9.3485 58.6621 10.4168 58.0844 11.775V7.41504H52.6646V31.5206H58.3186V20.3101C58.3186 18.6232 58.5916 17.1782 59.1374 15.973C59.681 14.77 60.4452 13.8546 61.4254 13.2291C62.408 12.6037 63.5451 12.2909 64.837 12.2909H67.1045V7.41504H64.5345Z" fill="white"/>
<path d="M76.8958 7.41471V0.308594L71.2417 0.356531V7.41471H66.2654V12.2906H71.2417V22.3506C71.2417 25.9139 71.9968 28.3336 73.507 29.6073C75.0194 30.8834 76.9185 31.5202 79.2088 31.5202H84.0919V26.8064H80.3779C78.0557 26.8064 76.8958 25.4071 76.8958 22.6085V12.2906H84.0919V7.41471H76.8958Z" fill="white"/>
<path d="M101.243 7.43787L95.682 22.0222L95.052 24.4852L94.4447 21.9993L88.7906 7.41504H82.8318L84.0918 10.5606L92.0384 30.3952L91.7564 31.2147C91.3994 32.1529 91.0354 32.8948 90.6715 33.4426C90.3054 33.9882 89.8528 34.3945 89.316 34.6616C88.777 34.9264 88.097 35.0611 87.2714 35.0611H84.0918V39.7498H87.3191C89.1705 39.7498 90.6943 39.5124 91.8861 39.0353C93.0778 38.5582 94.14 37.6976 95.0747 36.4558C96.0095 35.214 96.9511 33.3878 97.9018 30.9796L107.27 7.41504L101.243 7.43787Z" fill="white"/>
<path d="M24.9945 40.7089C24.8171 40.2204 24.6033 39.7501 24.3645 39.2844C23.3615 37.3373 21.9673 35.7942 20.1865 34.6505C19.8294 34.4222 19.4678 34.2214 19.0948 34.041C19.0357 34.0114 18.9765 33.9817 18.9151 33.9589C18.0963 33.5708 17.2412 33.2969 16.3405 33.1371C15.64 33.0047 14.9145 32.9385 14.1662 32.9385C12.9381 32.9385 11.7759 33.1599 10.6887 33.5959C10.2611 33.7671 9.84492 33.9703 9.43553 34.2077C7.99358 35.0477 6.87231 36.1754 6.05809 37.5815L6.16953 35.123L0.549561 40.7636V57.7494H5.92163V53.6907C6.74722 55.1813 7.90488 56.3478 9.38777 57.1992C10.8775 58.053 12.4923 58.4753 14.239 58.4753C16.4338 58.4753 18.417 57.9023 20.1865 56.7655C21.9491 55.6219 23.3388 54.0788 24.3531 52.1362C24.5965 51.6773 24.8057 51.2003 24.9877 50.7186C24.9877 50.7117 24.9945 50.7117 24.9945 50.7072C25.5813 49.1504 25.8724 47.484 25.8724 45.6966C25.8724 43.9207 25.5813 42.2588 24.9945 40.7089ZM19.3086 49.6822C18.6672 50.8259 17.812 51.7002 16.7385 52.3211C15.6628 52.9397 14.4869 53.2501 13.211 53.2501C11.9351 53.2501 10.7547 52.9214 9.66752 52.2731C8.58719 51.6226 7.72748 50.7232 7.09065 49.5795C6.44928 48.429 6.1286 47.137 6.1286 45.6966C6.1286 44.3201 6.44473 43.0555 7.07928 41.9004C7.70928 40.7385 8.56445 39.8323 9.64932 39.1657C10.4385 38.6841 11.2891 38.3736 12.1852 38.2412C12.5105 38.1933 12.8425 38.1705 13.1882 38.1705C13.5385 38.1705 13.8819 38.1933 14.214 38.2412C15.1169 38.3668 15.9607 38.659 16.7499 39.1178C17.8302 39.7501 18.69 40.6427 19.32 41.7817C19.95 42.9254 20.2638 44.2288 20.2638 45.6966C20.2638 47.2146 19.9431 48.5432 19.3086 49.6822Z" fill="white"/>
<path d="M46.2553 34.041V37.723C45.4775 36.2279 44.3244 35.0477 42.8051 34.1962C42.7096 34.1437 42.6095 34.089 42.5094 34.041H32.8615C32.5181 34.2214 32.186 34.4222 31.854 34.6437C30.1323 35.7941 28.7722 37.3418 27.7874 39.2958C27.5554 39.7547 27.3485 40.2272 27.1688 40.7088C26.5934 42.2634 26.3022 43.9252 26.3022 45.6966C26.3022 47.4771 26.5888 49.1572 27.1642 50.7186C27.3416 51.1957 27.5441 51.6659 27.776 52.1247C28.754 54.0787 30.1073 55.6264 31.8403 56.7655C33.5689 57.9092 35.493 58.4753 37.6104 58.4753C39.5573 58.4753 41.2926 58.0575 42.8051 57.2129C44.3244 56.366 45.4775 55.1927 46.2553 53.6975V57.7539H51.6274V34.041H46.2553ZM45.084 49.5087C44.4608 50.6592 43.6079 51.5632 42.5276 52.232C41.445 52.8917 40.2578 53.2273 38.9637 53.2273C37.6878 53.2273 36.5142 52.9214 35.4384 52.3096C34.3649 51.7001 33.5029 50.8259 32.8684 49.6868C32.227 48.5431 31.9063 47.2146 31.9063 45.6966C31.9063 44.2288 32.227 42.9254 32.857 41.7817C33.4847 40.6426 34.3399 39.7547 35.4157 39.1246C36.4892 38.4855 37.6718 38.1705 38.9637 38.1705C40.2578 38.1705 41.4405 38.5106 42.514 39.1771C43.5897 39.8505 44.4449 40.7613 45.0726 41.9118C45.7026 43.0623 46.0233 44.3247 46.0233 45.6966C46.0233 47.0891 45.7072 48.3582 45.084 49.5087Z" fill="white"/>
<path d="M73.4591 35.9654C72.8246 35.1618 72.0581 34.525 71.1734 34.041H61.505C61.4323 34.0707 61.3686 34.1141 61.2958 34.1483C59.8243 34.9701 58.7371 36.0567 58.0366 37.3966V34.041H52.6646V57.7539H58.3164V45.4386C58.3164 43.9252 58.6075 42.6149 59.1943 41.5124C59.7765 40.4098 60.5543 39.5766 61.5164 39.0037C62.483 38.433 63.5338 38.1476 64.6732 38.1476C66.4495 38.1476 67.821 38.6886 68.783 39.7798C69.7496 40.8641 70.2295 42.5624 70.2295 44.8794V57.7539H75.8882V44.7607C75.8882 40.928 75.0739 37.997 73.4591 35.9654Z" fill="white"/>
<path d="M88.1244 49.4882L95.2659 40.3436H88.3859L82.3884 47.888V34.041H76.7366V57.7539H82.3884V55.1745L84.01 53.1953L90.2486 64.0565H96.6009L88.1244 49.4882Z" fill="white"/>
<path d="M93.0823 53.2992C93.171 51.0918 95.0815 49.2588 97.2672 49.2884C99.5484 49.3181 101.416 51.2744 101.368 53.5937C101.322 55.8946 99.3255 57.8098 97.0784 57.7117C94.7858 57.6112 92.9891 55.6253 93.0823 53.2992Z" fill="white"/>
</svg>
