<svg width="486" height="236" viewBox="0 0 486 236" fill="none" xmlns="http://www.w3.org/2000/svg">
<path d="M108.25 59.4939C103.691 50.4035 97.3535 43.1994 89.2588 37.8816C81.133 32.5425 72.0149 29.8676 61.8939 29.8676C54.099 29.8676 46.8934 31.8711 40.2874 35.8568C33.671 39.8318 28.3883 45.2562 24.4185 52.098V33.1499H0V176.763L25.6901 150.281V140.551L25.1525 127.528C25.3282 127.837 25.504 128.146 25.6901 128.455C29.3394 134.594 34.281 139.517 40.5562 143.247C47.1415 147.137 54.3678 149.087 62.2248 149.087C72.201 149.087 81.2158 146.444 89.2588 141.105C97.2708 135.787 103.587 128.562 108.198 119.493C112.819 110.392 115.104 100.385 115.104 89.4187C115.104 78.5805 112.819 68.595 108.25 59.4939ZM85.2683 108.058C82.3529 113.376 78.4658 117.489 73.5863 120.356C68.6964 123.244 63.3516 124.693 57.5519 124.693C51.7523 124.693 46.3868 123.159 41.4453 120.132C36.5347 117.127 32.6269 112.928 29.7322 107.557C26.8169 102.186 25.3593 96.1539 25.3593 89.4187C25.3593 83.0245 26.7962 77.0992 29.6806 71.7068C32.5442 66.3144 36.4313 62.0516 41.3626 58.9398C46.2731 55.8492 51.6489 54.2933 57.4486 54.2933C63.3309 54.2933 68.7274 55.764 73.638 58.7479C78.5485 61.6892 82.4563 65.8348 85.32 71.1526C88.1836 76.4918 89.6103 82.5769 89.6103 89.4187C89.6103 96.5162 88.1526 102.719 85.2683 108.058Z" fill="#151924"/>
<path d="M207.415 33.1683V52.2122C203.869 45.2106 198.648 39.7116 191.752 35.7366C184.847 31.7615 176.938 29.7687 168.016 29.7687C158.453 29.7687 149.77 32.4542 141.944 37.8147C134.118 43.1858 127.956 50.4219 123.47 59.5442C118.972 68.6666 116.719 78.6309 116.719 89.437C116.719 100.307 118.952 110.303 123.418 119.426C127.874 128.548 134.035 135.773 141.892 141.102C149.749 146.43 158.495 149.095 168.12 149.095C176.969 149.095 184.847 147.123 191.752 143.18C198.648 139.237 203.869 133.77 207.415 126.758V145.706H231.833V33.1683H207.415ZM202.101 107.223C199.268 112.584 195.391 116.825 190.47 119.916C185.55 123.028 180.153 124.573 174.281 124.573C168.471 124.573 163.126 123.145 158.247 120.3C153.357 117.454 149.47 113.373 146.565 108.044C143.66 102.716 142.212 96.5132 142.212 89.437C142.212 82.5739 143.639 76.4781 146.513 71.1497C149.377 65.8212 153.253 61.6863 158.143 58.7236C163.023 55.7717 168.399 54.2904 174.281 54.2904C180.153 54.2904 185.539 55.8676 190.419 59.0007C195.309 62.1445 199.185 66.386 202.049 71.7571C204.913 77.1176 206.35 83.0109 206.35 89.437C206.35 95.9271 204.933 101.863 202.101 107.223Z" fill="#151924"/>
<path d="M290.852 33.1721C283.905 33.1721 277.95 34.9731 272.957 38.5859C267.964 42.1986 264.159 47.186 261.534 53.5269V33.1721H236.898V145.71H262.598V93.3733C262.598 85.4978 263.839 78.752 266.32 73.1251C268.791 67.5089 272.264 63.2354 276.72 60.3154C281.186 57.3954 286.355 55.9354 292.227 55.9354H302.534V33.1721H290.852Z" fill="#151924"/>
<path d="M347.024 33.1751V0L321.324 0.223796V33.1751H298.704V55.9384H321.324V102.904C321.324 119.539 324.756 130.836 331.62 136.782C338.495 142.739 347.128 145.713 357.538 145.713H379.734V123.706H362.852C352.297 123.706 347.024 117.173 347.024 104.108V55.9384H379.734V33.1751H347.024Z" fill="#151924"/>
<path d="M457.698 33.2787L432.422 101.366L429.558 112.865L426.798 101.259L401.097 33.1721H374.012L379.739 47.8574L415.86 140.456L414.578 144.282C412.955 148.662 411.301 152.125 409.647 154.683C407.983 157.23 405.925 159.127 403.486 160.374C401.035 161.61 397.944 162.239 394.192 162.239H379.739V184.128H394.409C402.824 184.128 409.75 183.02 415.168 180.792C420.585 178.565 425.413 174.547 429.661 168.75C433.91 162.953 438.19 154.427 442.512 143.184L485.094 33.1721L457.698 33.2787Z" fill="#151924"/>
<path d="M111.113 188.607C110.307 186.327 109.335 184.132 108.25 181.958C103.691 172.867 97.3535 165.663 89.2588 160.324C87.6357 159.258 85.9919 158.32 84.2965 157.478C84.0277 157.34 83.7589 157.201 83.4798 157.095C79.7581 155.283 75.871 154.004 71.7771 153.258C68.593 152.64 65.2952 152.331 61.8939 152.331C56.3114 152.331 51.0286 153.365 46.087 155.4C44.1435 156.2 42.2516 157.148 40.3908 158.256C33.8365 162.178 28.7398 167.443 25.0388 174.007L25.5453 162.53L0 188.863V268.162H24.4185V249.214C28.1712 256.173 33.4333 261.618 40.1737 265.593C46.9451 269.579 54.2851 271.551 62.2248 271.551C72.201 271.551 81.2158 268.876 89.2588 263.569C97.2708 258.229 103.587 251.025 108.198 241.956C109.304 239.814 110.255 237.587 111.082 235.338C111.082 235.306 111.113 235.306 111.113 235.285C113.781 228.017 115.104 220.237 115.104 211.893C115.104 203.602 113.781 195.844 111.113 188.607ZM85.2683 230.5C82.3529 235.839 78.4658 239.921 73.5863 242.819C68.6964 245.707 63.3516 247.157 57.5519 247.157C51.7523 247.157 46.3868 245.622 41.4453 242.596C36.5347 239.558 32.6269 235.36 29.7322 230.02C26.8169 224.649 25.3593 218.617 25.3593 211.893C25.3593 205.467 26.7962 199.563 29.6806 194.17C32.5442 188.746 36.4313 184.515 41.3626 181.403C44.9499 179.155 48.8163 177.705 52.8895 177.087C54.3678 176.864 55.8772 176.757 57.4486 176.757C59.0406 176.757 60.6017 176.864 62.111 177.087C66.2152 177.673 70.0507 179.038 73.638 181.18C78.5485 184.132 82.4563 188.298 85.32 193.616C88.1836 198.955 89.6103 205.041 89.6103 211.893C89.6103 218.98 88.1526 225.182 85.2683 230.5Z" fill="#151924"/>
<path d="M207.759 157.477V174.667C204.224 167.687 198.982 162.177 192.076 158.202C191.642 157.957 191.187 157.701 190.732 157.477H146.878C145.317 158.319 143.808 159.257 142.299 160.291C134.473 165.662 128.291 172.887 123.814 182.01C122.76 184.152 121.819 186.358 121.002 188.606C118.387 195.864 117.063 203.622 117.063 211.892C117.063 220.204 118.366 228.048 120.982 235.337C121.788 237.565 122.708 239.76 123.763 241.902C128.208 251.024 134.359 258.25 142.237 263.568C150.094 268.907 158.84 271.55 168.464 271.55C177.314 271.55 185.202 269.599 192.076 265.656C198.982 261.703 204.224 256.225 207.759 249.245V268.182H232.178V157.477H207.759ZM202.435 229.689C199.603 235.06 195.726 239.28 190.815 242.403C185.894 245.483 180.498 247.049 174.615 247.049C168.816 247.049 163.481 245.621 158.591 242.765C153.712 239.92 149.794 235.838 146.909 230.52C143.994 225.181 142.536 218.979 142.536 211.892C142.536 205.039 143.994 198.954 146.858 193.615C149.711 188.297 153.598 184.152 158.488 181.21C163.368 178.227 168.743 176.756 174.615 176.756C180.498 176.756 185.874 178.344 190.753 181.456C195.643 184.599 199.53 188.852 202.383 194.223C205.247 199.594 206.705 205.487 206.705 211.892C206.705 218.393 205.268 224.318 202.435 229.689Z" fill="#151924"/>
<path d="M331.419 166.461C328.534 162.71 325.051 159.737 321.029 157.477H277.082C276.751 157.616 276.462 157.818 276.131 157.978C269.442 161.815 264.501 166.888 261.316 173.143V157.477H236.898V268.182H262.588V210.688C262.588 203.622 263.911 197.505 266.578 192.358C269.225 187.21 272.761 183.321 277.134 180.646C281.527 177.981 286.304 176.649 291.483 176.649C299.557 176.649 305.791 179.175 310.164 184.269C314.557 189.331 316.739 197.26 316.739 208.077V268.182H342.46V207.523C342.46 189.629 338.759 175.946 331.419 166.461Z" fill="#151924"/>
<path d="M398.072 229.593L430.534 186.901H399.261L372 222.123V157.477H346.31V268.182H372V256.14L379.371 246.9L407.728 297.606H436.602L398.072 229.593Z" fill="#151924"/>
<path d="M420.606 247.397C421.009 237.091 429.693 228.534 439.628 228.672C449.997 228.811 458.485 237.944 458.268 248.771C458.061 259.514 448.984 268.455 438.77 267.997C428.349 267.528 420.182 258.256 420.606 247.397Z" fill="#151924"/>
</svg>
