<svg width="126" height="80" viewBox="0 0 126 80" fill="none" xmlns="http://www.w3.org/2000/svg">
<path d="M30.1979 17.708C29.049 15.4173 27.452 13.6018 25.4122 12.2617C23.3645 10.9163 21.0667 10.2422 18.5162 10.2422C16.5519 10.2422 14.7361 10.7471 13.0714 11.7515C11.404 12.7532 10.0728 14.1201 9.0724 15.8443V11.0693H2.91895V47.2599L9.39284 40.5863V38.1344L9.25737 34.8526C9.30166 34.9305 9.34595 35.0084 9.39284 35.0863C10.3125 36.6331 11.5578 37.8739 13.1391 38.8138C14.7986 39.794 16.6196 40.2855 18.5996 40.2855C21.1136 40.2855 23.3853 39.6195 25.4122 38.274C27.4312 36.9339 29.0229 35.1131 30.1849 32.8277C31.3494 30.5342 31.9251 28.0125 31.9251 25.2491C31.9251 22.5179 31.3494 20.0015 30.1979 17.708ZM24.4066 29.9461C23.6719 31.2862 22.6923 32.3228 21.4627 33.0452C20.2304 33.773 18.8835 34.1383 17.422 34.1383C15.9605 34.1383 14.6084 33.7515 13.3632 32.9888C12.1257 32.2315 11.1409 31.1734 10.4115 29.8199C9.67681 28.4664 9.30948 26.9463 9.30948 25.2491C9.30948 23.6377 9.6716 22.1446 10.3984 20.7857C11.1201 19.4268 12.0996 18.3526 13.3423 17.5684C14.5798 16.7896 15.9345 16.3975 17.396 16.3975C18.8783 16.3975 20.2382 16.7681 21.4757 17.52C22.7132 18.2613 23.6979 19.3059 24.4196 20.646C25.1412 21.9915 25.5007 23.5249 25.5007 25.2491C25.5007 27.0376 25.1334 28.6006 24.4066 29.9461Z" fill="#E91B41"/>
<path d="M55.1874 11.0739V15.8729C54.2938 14.1085 52.9782 12.7228 51.2405 11.7211C49.5002 10.7194 47.5073 10.2172 45.259 10.2172C42.8492 10.2172 40.6608 10.8939 38.6887 12.2448C36.7166 13.5983 35.1639 15.4218 34.0332 17.7206C32.9 20.0194 32.332 22.5304 32.332 25.2536C32.332 27.9928 32.8948 30.5119 34.0202 32.8107C35.143 35.1096 36.6957 36.9304 38.6757 38.2732C40.6556 39.6159 42.8596 40.2873 45.285 40.2873C47.5151 40.2873 49.5002 39.7905 51.2405 38.7968C52.9782 37.8032 54.2938 36.4255 55.1874 34.6584V39.4333H61.3408V11.0739H55.1874ZM53.8483 29.7358C53.1345 31.0866 52.1575 32.1555 50.9175 32.9343C49.6774 33.7185 48.3175 34.1079 46.8377 34.1079C45.3736 34.1079 44.0267 33.748 42.7971 33.0309C41.5648 32.3139 40.5853 31.2853 39.8532 29.9426C39.1212 28.5998 38.7564 27.0368 38.7564 25.2536C38.7564 23.5241 39.1159 21.9879 39.8402 20.6452C40.5618 19.3024 41.5388 18.2604 42.771 17.5138C44.0007 16.7699 45.3554 16.3966 46.8377 16.3966C48.3175 16.3966 49.6748 16.7941 50.9044 17.5836C52.1367 18.3759 53.1136 19.4447 53.8353 20.7982C54.5569 22.1491 54.919 23.6342 54.919 25.2536C54.919 26.8891 54.5621 28.3849 53.8483 29.7358Z" fill="white"/>
<path d="M76.2137 11.075C74.463 11.075 72.9624 11.5288 71.7041 12.4392C70.4458 13.3496 69.4871 14.6065 68.8254 16.2044V11.075H62.6172V39.4344H69.0937V26.2457C69.0937 24.261 69.4063 22.5611 70.0316 21.1431C70.6542 19.7278 71.5295 18.6509 72.6524 17.9151C73.7778 17.1792 75.0804 16.8113 76.5602 16.8113H79.1575V11.075H76.2137Z" fill="white"/>
<path d="M90.369 11.0757V2.71558L83.8925 2.77197V11.0757H78.1924V16.8121H83.8925V28.6473C83.8925 32.8394 84.7575 35.6861 86.4873 37.1847C88.2198 38.6859 90.3951 39.4352 93.0185 39.4352H98.6119V33.8895H94.3576C91.6977 33.8895 90.369 32.2433 90.369 28.9508V16.8121H98.6119V11.0757H90.369Z" fill="white"/>
<path d="M118.259 11.1018L111.889 28.2598L111.168 31.1575L110.472 28.233L103.996 11.075H97.1699L98.6132 14.7756L107.716 38.1104L107.393 39.0745C106.984 40.1783 106.567 41.0511 106.15 41.6956C105.731 42.3375 105.212 42.8155 104.597 43.1297C103.98 43.4413 103.201 43.5997 102.255 43.5997H98.6132V49.1158H102.31C104.431 49.1158 106.176 48.8365 107.541 48.2753C108.906 47.714 110.123 46.7015 111.194 45.2406C112.264 43.7796 113.343 41.6312 114.432 38.7979L125.163 11.075L118.259 11.1018Z" fill="white"/>
<path d="M30.9195 50.2448C30.7163 49.6701 30.4714 49.1168 30.1979 48.569C29.049 46.2782 27.452 44.4628 25.4122 43.1173C25.0031 42.8488 24.5889 42.6124 24.1617 42.4003C24.0939 42.3654 24.0262 42.3304 23.9559 42.3036C23.018 41.847 22.0384 41.5248 21.0068 41.3368C20.2044 41.181 19.3733 41.1031 18.5162 41.1031C17.1094 41.1031 15.7782 41.3636 14.5329 41.8766C14.0431 42.078 13.5664 42.317 13.0974 42.5963C11.4457 43.5846 10.1614 44.9113 9.22871 46.5656L9.35637 43.6732L2.91895 50.3092V70.2924H9.0724V65.5175C10.0181 67.2712 11.3441 68.6435 13.0427 69.6452C14.7491 70.6496 16.5988 71.1464 18.5996 71.1464C21.1136 71.1464 23.3853 70.4724 25.4122 69.135C27.4312 67.7895 29.0229 65.9741 30.1849 63.6887C30.4636 63.1489 30.7033 62.5876 30.9117 62.0209C30.9117 62.0129 30.9195 62.0129 30.9195 62.0075C31.5917 60.176 31.9251 58.2155 31.9251 56.1127C31.9251 54.0234 31.5917 52.0683 30.9195 50.2448ZM24.4066 60.8017C23.6719 62.1472 22.6923 63.1757 21.4627 63.9062C20.2304 64.634 18.8835 64.9992 17.422 64.9992C15.9605 64.9992 14.6084 64.6125 13.3632 63.8498C12.1257 63.0844 11.1409 62.0263 10.4115 60.6808C9.67681 59.3273 9.30948 57.8073 9.30948 56.1127C9.30948 54.4933 9.6716 53.0055 10.3984 51.6466C11.1201 50.2797 12.0996 49.2135 13.3423 48.4293C14.2463 47.8627 15.2207 47.4975 16.2471 47.3417C16.6196 47.2853 17 47.2584 17.396 47.2584C17.7972 47.2584 18.1906 47.2853 18.5709 47.3417C19.6052 47.4894 20.5717 47.8332 21.4757 48.3729C22.7132 49.1168 23.6979 50.1669 24.4196 51.507C25.1412 52.8525 25.5007 54.3859 25.5007 56.1127C25.5007 57.8986 25.1334 59.4616 24.4066 60.8017Z" fill="white"/>
<path d="M55.2743 42.4001V46.7319C54.3833 44.9729 53.0625 43.5845 51.3222 42.5828C51.2128 42.521 51.0982 42.4565 50.9835 42.4001H39.9323C39.5389 42.6123 39.1586 42.8486 38.7782 43.1091C36.8061 44.4627 35.2482 46.2835 34.1201 48.5823C33.8544 49.1221 33.6173 49.678 33.4115 50.2447C32.7524 52.0735 32.4189 54.0286 32.4189 56.1126C32.4189 58.2073 32.7472 60.1839 33.4063 62.0208C33.6095 62.5821 33.8414 63.1353 34.1071 63.6751C35.2273 65.9739 36.7774 67.7948 38.7626 69.1348C40.7425 70.4803 42.9465 71.1463 45.372 71.1463C47.602 71.1463 49.5898 70.6549 51.3222 69.6612C53.0625 68.6649 54.3833 67.2845 55.2743 65.5255V70.2977H61.4277V42.4001H55.2743ZM53.9326 60.5975C53.2188 61.951 52.2418 63.0145 51.0044 63.8013C49.7643 64.5775 48.4044 64.9722 46.922 64.9722C45.4605 64.9722 44.1162 64.6124 42.884 63.8926C41.6543 63.1756 40.667 62.147 39.9401 60.8069C39.2055 59.4615 38.8381 57.8985 38.8381 56.1126C38.8381 54.3858 39.2055 52.8523 39.9271 51.5069C40.6461 50.1668 41.6257 49.1221 42.8579 48.3809C44.0876 47.6289 45.4423 47.2583 46.922 47.2583C48.4044 47.2583 49.7591 47.6585 50.9887 48.4426C52.221 49.2349 53.2005 50.3064 53.9196 51.6599C54.6412 53.0135 55.0085 54.4986 55.0085 56.1126C55.0085 57.7508 54.6464 59.2439 53.9326 60.5975Z" fill="white"/>
<path d="M86.4364 44.6641C85.7096 43.7188 84.8316 42.9695 83.8182 42.4001H72.7436C72.6602 42.4351 72.5872 42.4861 72.5039 42.5264C70.8183 43.4932 69.573 44.7715 68.7706 46.3479V42.4001H62.6172V70.2977H69.0911V55.8091C69.0911 54.0286 69.4245 52.4871 70.0967 51.19C70.7636 49.8928 71.6546 48.9126 72.7566 48.2385C73.8638 47.5672 75.0674 47.2315 76.3726 47.2315C78.4072 47.2315 79.9782 47.8679 81.0802 49.1516C82.1874 50.4273 82.7371 52.4253 82.7371 55.1512V70.2977H89.2188V55.0115C89.2188 50.5025 88.2861 47.0542 86.4364 44.6641Z" fill="white"/>
<path d="M103.233 60.5733L111.413 49.815H103.533L96.6629 58.6907V42.4001H90.189V70.2977H96.6629V67.263L98.5204 64.9346L105.666 77.7125H112.943L103.233 60.5733Z" fill="white"/>
<path d="M108.912 65.0595C109.013 62.4626 111.202 60.3061 113.705 60.341C116.318 60.3759 118.457 62.6774 118.402 65.406C118.35 68.113 116.063 70.3662 113.489 70.2507C110.863 70.1325 108.805 67.7961 108.912 65.0595Z" fill="white"/>
</svg>
